HIERARCHY
ROOT Pelvis
{
	OFFSET 0.000000 0.000000 0.000000
	CHANNELS 6 Xposition Yposition Zposition Xrotation Yrotation Zrotation
	JOINT LeftUpLeg_virtual
	{
		OFFSET 0.000000 0.000000 0.000000
		CHANNELS 3 Xrotation Yrotation Zrotation
		JOINT LeftUpLeg
		{
			OFFSET 18.735201 -5.666702 -4.541200
			CHANNELS 3 Xrotation Yrotation Zrotation
			JOINT LeftLeg
			{
				OFFSET -0.021200 -31.938179 0.493100
				CHANNELS 3 Xrotation Yrotation Zrotation
				JOINT LeftFoot
				{
					OFFSET 0.021200 -31.938179 -4.336299
					CHANNELS 3 Xrotation Yrotation Zrotation
					JOINT LeftToeBase
					{
						OFFSET 0.943001 -26.722000 15.023500
						CHANNELS 3 Xrotation Yrotation Zrotation
						End Site
						{
							OFFSET 0 0 0
						}
					}
				}
			}
		}
	}
	JOINT RightUpLeg_virtual
	{
		OFFSET 0.000000 0.000000 0.000000
		CHANNELS 3 Xrotation Yrotation Zrotation
		JOINT RightUpLeg
		{
			OFFSET -18.735201 -5.666702 -4.541200
			CHANNELS 3 Xrotation Yrotation Zrotation
			JOINT RightLeg
			{
				OFFSET 0.018946 -31.938133 0.493100
				CHANNELS 3 Xrotation Yrotation Zrotation
				JOINT RightFoot
				{
					OFFSET -0.018946 -31.938126 -4.336299
					CHANNELS 3 Xrotation Yrotation Zrotation
					JOINT RightToeBase
					{
						OFFSET -0.943001 -26.722004 15.023500
						CHANNELS 3 Xrotation Yrotation Zrotation
						End Site
						{
							OFFSET 0 0 0
						}
					}
				}
			}
		}
	}
	JOINT Hips_virtual
	{
		OFFSET 0.000000 0.000000 0.000000
		CHANNELS 3 Xrotation Yrotation Zrotation
		JOINT Hips
		{
			OFFSET -0.000000 -0.000000 -0.000000
			CHANNELS 3 Xrotation Yrotation Zrotation
			JOINT Spine
			{
				OFFSET 0.000000 10.199997 -0.299500
				CHANNELS 3 Xrotation Yrotation Zrotation
				JOINT Spine1
				{
					OFFSET 0.000000 11.900002 -1.516600
					CHANNELS 3 Xrotation Yrotation Zrotation
					JOINT Spine2
					{
						OFFSET 0.000000 13.600006 -2.842500
						CHANNELS 3 Xrotation Yrotation Zrotation
						JOINT Neck_virtual
						{
							OFFSET 0.000000 0.000000 0.000000
							CHANNELS 3 Xrotation Yrotation Zrotation
							JOINT Neck
							{
								OFFSET 0.000000 9.624100 -2.890100
								CHANNELS 3 Xrotation Yrotation Zrotation
								JOINT Head
								{
									OFFSET 0.000000 14.068802 -1.351900
									CHANNELS 3 Xrotation Yrotation Zrotation
									End Site
									{
										OFFSET 0 0 0
									}
								}
							}
						}
						JOINT LeftShoulder_virtual
						{
							OFFSET 0.000000 0.000000 0.000000
							CHANNELS 3 Xrotation Yrotation Zrotation
							JOINT LeftShoulder
							{
								OFFSET 15.263000 10.923401 -0.547700
								CHANNELS 3 Xrotation Yrotation Zrotation
								JOINT LeftArm
								{
									OFFSET 25.438599 -2.830597 -13.032500
									CHANNELS 3 Xrotation Yrotation Zrotation
									JOINT LeftForeArm
									{
										OFFSET 29.960503 0.000000 0.000000
										CHANNELS 3 Xrotation Yrotation Zrotation
										JOINT LeftHand
										{
											OFFSET 27.849251 0.000000 0.000000
											CHANNELS 3 Xrotation Yrotation Zrotation
											End Site
											{
												OFFSET 0 0 0
											}
										}
									}
								}
							}
						}
						JOINT RightShoulder_virtual
						{
							OFFSET 0.000000 0.000000 0.000000
							CHANNELS 3 Xrotation Yrotation Zrotation
							JOINT RightShoulder
							{
								OFFSET -15.263000 10.923401 -0.547700
								CHANNELS 3 Xrotation Yrotation Zrotation
								JOINT RightArm
								{
									OFFSET -25.438599 -2.830597 -13.032500
									CHANNELS 3 Xrotation Yrotation Zrotation
									JOINT RightForeArm
									{
										OFFSET -29.960503 0.000000 0.000000
										CHANNELS 3 Xrotation Yrotation Zrotation
										JOINT RightHand
										{
											OFFSET -27.849251 0.000000 0.000000
											CHANNELS 3 Xrotation Yrotation Zrotation
											End Site
											{
												OFFSET 0 0 0
											}
										}
									}
								}
							}
						}
					}
				}
			}
		}
	}
}
MOTION
Frames: 12
Frame Time: 0.03333333
-1.122621 16.244324 6.579575 0.000000 0.000000 0.000000 -86.956894 -3.301878 2.114038 -31.528461 17.887808 -7.697152 33.378021 -6.715777 -11.275708 -0.889510 8.989472 10.555588 0.000000 0.000000 0.000000 -86.956894 -3.301878 2.114038 -6.424845 -10.022475 -5.480809 -1.209811 -10.586143 4.763990 19.624733 -3.095424 28.760656 0.000000 0.000000 0.000000 -86.956894 -3.301878 2.114038 0.000000 0.000000 0.000000 0.150279 1.790892 -4.552612 -2.888439 0.730091 -0.024166 0.000000 0.000000 0.000000 -2.886187 0.757976 -0.000688 1.985832 0.205231 0.039458 0.000000 0.000000 0.000000 -2.886187 0.757976 -0.000688 1.578111 -15.480672 -0.373039 21.463361 -1.241638 -73.171052 -179.999978 -42.712260 -179.999978 0.000000 0.000000 0.000000 -2.886187 0.757976 -0.000688 0.519558 6.620696 0.071980 17.383921 6.639987 66.688867 179.999978 47.041162 -179.999978 0.000000 0.000000 0.000000 
-1.126994 16.244987 6.590401 0.000000 0.000000 0.000000 -86.965213 -3.310845 2.114251 -31.553893 17.891040 -7.681355 33.438489 -6.717695 -11.281059 -0.910310 8.950636 10.560692 0.000000 0.000000 0.000000 -86.965213 -3.310845 2.114251 -6.400889 -10.018848 -5.475241 -1.211056 -10.579143 4.761163 19.539600 -3.096004 28.793291 0.000000 0.000000 0.000000 -86.965213 -3.310845 2.114251 0.000000 0.000000 0.000000 0.146998 1.775889 -4.551673 -2.890436 0.725068 -0.031185 0.000000 0.000000 0.000000 -2.888228 0.753031 -0.007883 1.993033 0.188589 0.048073 0.000000 0.000000 0.000000 -2.888228 0.753031 -0.007883 1.577582 -15.471328 -0.370374 21.413608 -1.119645 -73.164993 -179.999964 -42.539969 -179.999950 0.000000 0.000000 0.000000 -2.888228 0.753031 -0.007883 0.531632 6.659060 0.071798 17.320888 6.578504 66.719999 -179.999991 47.039639 179.999978 0.000000 0.000000 0.000000 
-1.129017 16.246109 6.603622 0.000000 0.000000 0.000000 -86.976681 -3.314995 2.113585 -31.578949 17.895038 -7.666705 33.507641 -6.718611 -11.286803 -0.938981 8.906848 10.567690 0.000000 0.000000 0.000000 -86.976681 -3.314995 2.113585 -6.371040 -10.017394 -5.472803 -1.211089 -10.581577 4.760737 19.448716 -3.090524 28.829378 0.000000 0.000000 0.000000 -86.976681 -3.314995 2.113585 0.000000 0.000000 0.000000 0.152119 1.757265 -4.539403 -2.899782 0.719093 -0.031225 0.000000 0.000000 0.000000 -2.897572 0.747077 -0.008095 2.002529 0.174997 0.055675 0.000000 0.000000 0.000000 -2.897572 0.747077 -0.008095 1.572098 -15.451421 -0.406931 21.322449 -0.990329 -73.108364 -179.999964 -42.351087 -179.999964 0.000000 0.000000 0.000000 -2.897572 0.747077 -0.008095 0.542307 6.731885 0.071286 17.280946 6.510337 66.772810 179.999991 47.019664 -179.999964 0.000000 0.000000 0.000000 
-1.128440 16.247169 6.618134 0.000000 0.000000 0.000000 -86.988456 -3.313274 2.112272 -31.603576 17.899959 -7.654335 33.577879 -6.717806 -11.293343 -0.967463 8.858591 10.577810 0.000000 0.000000 0.000000 -86.988456 -3.313274 2.112272 -6.338854 -10.017402 -5.473314 -1.210076 -10.588224 4.762244 19.352634 -3.085249 28.870701 0.000000 0.000000 0.000000 -86.988456 -3.313274 2.112272 0.000000 0.000000 0.000000 0.166814 1.739502 -4.522321 -2.910619 0.713544 -0.026432 0.000000 0.000000 0.000000 -2.908354 0.741506 -0.003457 2.011483 0.162603 0.064468 0.000000 0.000000 0.000000 -2.908354 0.741506 -0.003457 1.565692 -15.422390 -0.445049 21.221010 -0.901430 -73.058285 -179.999991 -42.246370 -179.999978 0.000000 0.000000 0.000000 -2.908354 0.741506 -0.003457 0.549136 6.804088 0.070729 17.259767 6.469271 66.833101 -179.999937 46.986770 179.999937 0.000000 0.000000 0.000000 
-1.125737 16.247231 6.632851 0.000000 0.000000 0.000000 -86.997021 -3.306486 2.111091 -31.629588 17.906422 -7.644810 33.642230 -6.715678 -11.300982 -0.986888 8.806888 10.592846 0.000000 0.000000 0.000000 -86.997021 -3.306486 2.111091 -6.309377 -10.018180 -5.476240 -1.208881 -10.595098 4.764727 19.253337 -3.083313 28.916716 0.000000 0.000000 0.000000 -86.997021 -3.306486 2.111091 0.000000 0.000000 0.000000 0.181117 1.730625 -4.512424 -2.913367 0.710866 -0.020000 0.000000 0.000000 0.000000 -2.911087 0.738785 0.002853 2.016270 0.149630 0.074393 0.000000 0.000000 0.000000 -2.911087 0.738785 0.002853 1.560522 -15.391386 -0.469535 21.128145 -0.878649 -73.032822 -179.999964 -42.295441 -179.999964 0.000000 0.000000 0.000000 -2.911087 0.738785 0.002853 0.548350 6.822701 0.070563 17.242912 6.481581 66.861821 179.999978 46.953825 -179.999991 0.000000 0.000000 0.000000 
-1.121333 16.246105 6.646988 0.000000 0.000000 0.000000 -86.998674 -3.297499 2.110876 -31.659949 17.915282 -7.638535 33.696670 -6.714124 -11.309515 -0.990802 8.753144 10.615369 0.000000 0.000000 0.000000 -86.998674 -3.297499 2.110876 -6.287623 -10.019277 -5.481095 -1.208463 -10.601459 4.767316 19.153577 -3.083374 28.963342 0.000000 0.000000 0.000000 -86.998674 -3.297499 2.110876 0.000000 0.000000 0.000000 0.182961 1.736739 -4.514764 -2.904507 0.712676 -0.014314 0.000000 0.000000 0.000000 -2.902096 0.740548 0.008495 2.016381 0.135283 0.082932 0.000000 0.000000 0.000000 -2.902096 0.740548 0.008495 1.555974 -15.366973 -0.493582 21.057639 -0.924816 -73.005112 179.999964 -42.486464 179.999964 0.000000 0.000000 0.000000 -2.902096 0.740548 0.008495 0.538081 6.767179 0.070941 17.221817 6.537261 66.832472 179.999978 46.928932 -179.999991 0.000000 0.000000 0.000000 
-1.116095 16.244408 6.660355 0.000000 0.000000 0.000000 -86.992889 -3.288471 2.112293 -31.695739 17.926888 -7.635657 33.742408 -6.715860 -11.318046 -0.979434 8.699087 10.646516 0.000000 0.000000 0.000000 -86.992889 -3.288471 2.112293 -6.276037 -10.019802 -5.487409 -1.206255 -10.607888 4.769250 19.053427 -3.083531 29.006881 0.000000 0.000000 0.000000 -86.992889 -3.288471 2.112293 0.000000 0.000000 0.000000 0.168345 1.755214 -4.523633 -2.889157 0.717741 -0.011703 0.000000 0.000000 0.000000 -2.886728 0.745553 0.011144 2.013539 0.120073 0.088670 0.000000 0.000000 0.000000 -2.886728 0.745553 0.011144 1.551240 -15.346544 -0.522816 21.014042 -1.012208 -72.959172 -179.999991 -42.731316 -179.999978 0.000000 0.000000 0.000000 -2.886728 0.745553 0.011144 0.522537 6.667663 0.071620 17.199856 6.601845 66.763057 -179.999937 46.912997 179.999937 0.000000 0.000000 0.000000 
-1.111745 16.243248 6.673927 0.000000 0.000000 0.000000 -86.983518 -3.280177 2.115790 -31.736163 17.940764 -7.634966 33.788218 -6.723476 -11.325514 -0.962070 8.646317 10.683422 0.000000 0.000000 0.000000 -86.983518 -3.280177 2.115790 -6.267098 -10.019286 -5.493874 -1.206323 -10.615499 4.769988 18.953147 -3.083572 29.046909 0.000000 0.000000 0.000000 -86.983518 -3.280177 2.115790 0.000000 0.000000 0.000000 0.145595 1.771321 -4.528061 -2.877936 0.721608 -0.012196 0.000000 0.000000 0.000000 -2.875492 0.749359 0.010689 2.011230 0.105623 0.092988 0.000000 0.000000 0.000000 -2.875492 0.749359 0.010689 1.546767 -15.319897 -0.544358 20.983622 -1.077410 -72.922774 -179.999978 -42.911521 -179.999991 0.000000 0.000000 0.000000 -2.875492 0.749359 0.010689 0.509774 6.590587 0.072118 17.186180 6.641312 66.708067 -179.999978 46.900915 179.999991 0.000000 0.000000 0.000000 
-1.109203 16.243538 6.689201 0.000000 0.000000 0.000000 -86.974707 -3.274505 2.120622 -31.780635 17.955580 -7.633256 33.843300 -6.738679 -11.331577 -0.948761 8.596082 10.718443 0.000000 0.000000 0.000000 -86.974707 -3.274505 2.120622 -6.256283 -10.017716 -5.499253 -1.206332 -10.620744 4.769295 18.848459 -3.086235 29.089147 0.000000 0.000000 0.000000 -86.974707 -3.274505 2.120622 0.000000 0.000000 0.000000 0.128425 1.769348 -4.521429 -2.878204 0.720214 -0.011917 0.000000 0.000000 0.000000 -2.875729 0.747918 0.010902 2.012362 0.093565 0.097624 0.000000 0.000000 0.000000 -2.875729 0.747918 0.010902 1.542558 -15.284360 -0.556155 20.941620 -1.065031 -72.921128 180.000005 -42.949391 -179.999991 0.000000 0.000000 0.000000 -2.875729 0.747918 0.010902 0.504488 6.590549 0.072058 17.183627 6.639214 66.710929 -179.999978 46.885376 179.999978 0.000000 0.000000 0.000000 
-1.108169 16.244759 6.706436 0.000000 0.000000 0.000000 -86.968341 -3.274208 2.125867 -31.826537 17.969316 -7.627597 33.905612 -6.760798 -11.337913 -0.940828 8.549481 10.743111 0.000000 0.000000 0.000000 -86.968341 -3.274208 2.125867 -6.241561 -10.015065 -5.503477 -1.207105 -10.618000 4.766858 18.737907 -3.092917 29.143550 0.000000 0.000000 0.000000 -86.968341 -3.274208 2.125867 0.000000 0.000000 0.000000 0.124840 1.751558 -4.507577 -2.887130 0.714711 -0.007791 0.000000 0.000000 0.000000 -2.884642 0.742379 0.014870 2.017205 0.084211 0.102565 0.000000 0.000000 0.000000 -2.884642 0.742379 0.014870 1.537138 -15.246782 -0.577976 20.873623 -0.986585 -72.923676 179.999978 -42.863726 179.999991 0.000000 0.000000 0.000000 -2.884642 0.742379 0.014870 0.504829 6.656773 0.071531 17.184737 6.606029 66.762510 180.000005 46.862321 179.999991 0.000000 0.000000 0.000000 
-1.108149 16.245583 6.725220 0.000000 0.000000 0.000000 -86.965698 -3.279390 2.131507 -31.870305 17.980637 -7.617475 33.969700 -6.784927 -11.346325 -0.935968 8.507345 10.752921 0.000000 0.000000 0.000000 -86.965698 -3.279390 2.131507 -6.223161 -10.011016 -5.507652 -1.208716 -10.602841 4.762594 18.622968 -3.103279 29.217674 0.000000 0.000000 0.000000 -86.965698 -3.279390 2.131507 0.000000 0.000000 0.000000 0.131172 1.738994 -4.495998 -2.895079 0.710876 -0.002459 0.000000 0.000000 0.000000 -2.892540 0.738506 0.020089 2.022696 0.076639 0.106947 0.000000 0.000000 0.000000 -2.892540 0.738506 0.020089 1.530030 -15.213447 -0.620581 20.788536 -0.911298 -72.879409 179.999978 -42.746626 179.999978 0.000000 0.000000 0.000000 -2.892540 0.738506 0.020089 0.505960 6.720583 0.071038 17.179194 6.570311 66.815205 -179.999923 46.833275 179.999909 0.000000 0.000000 0.000000 
-1.108341 16.245907 6.747780 0.000000 0.000000 0.000000 -86.966893 -3.286961 2.137522 -31.916176 17.991476 -7.603948 34.045980 -6.805425 -11.354566 -0.940312 8.469558 10.749481 0.000000 0.000000 0.000000 -86.966893 -3.286961 2.137522 -6.201608 -10.005406 -5.512333 -1.212404 -10.578821 4.756253 18.513834 -3.115819 29.306443 0.000000 0.000000 0.000000 -86.966893 -3.286961 2.137522 0.000000 0.000000 0.000000 0.138523 1.747792 -4.491865 -2.896235 0.712713 -0.001318 0.000000 0.000000 0.000000 -2.893600 0.740313 0.021275 2.025426 0.070395 0.110449 0.000000 0.000000 0.000000 -2.893600 0.740313 0.021275 1.523564 -15.188170 -0.663664 20.710387 -0.892942 -72.795801 179.999978 -42.676367 179.999991 0.000000 0.000000 0.000000 -2.893600 0.740313 0.021275 0.505147 6.727335 0.070979 17.161112 6.550910 66.835423 -179.999978 46.802239 179.999978 0.000000 0.000000 0.000000 
